<?xml version="1.0" encoding="UTF-8" standalone="no"?>
<svg
   xmlns:dc="http://purl.org/dc/elements/1.1/"
   xmlns:cc="http://creativecommons.org/ns#"
   xmlns:rdf="http://www.w3.org/1999/02/22-rdf-syntax-ns#"
   xmlns:svg="http://www.w3.org/2000/svg"
   xmlns="http://www.w3.org/2000/svg"
   xmlns:sodipodi="http://sodipodi.sourceforge.net/DTD/sodipodi-0.dtd"
   xmlns:inkscape="http://www.inkscape.org/namespaces/inkscape"
   width="64pt"
   height="64pt"
   viewBox="0 0 22.577778 22.577778"
   version="1.1"
   id="svg831"
   inkscape:version="1.0 (4035a4fb49, 2020-05-01)"
   sodipodi:docname="1 - Circular Saw.svg">
  <defs
     id="defs825">
    <pattern
       id="EMFhbasepattern"
       patternUnits="userSpaceOnUse"
       width="6"
       height="6"
       x="0"
       y="0" />
    <pattern
       id="EMFhbasepattern-9"
       patternUnits="userSpaceOnUse"
       width="6"
       height="6"
       x="0"
       y="0" />
    <pattern
       id="EMFhbasepattern-0"
       patternUnits="userSpaceOnUse"
       width="6"
       height="6"
       x="0"
       y="0" />
    <pattern
       id="EMFhbasepattern-7"
       patternUnits="userSpaceOnUse"
       width="6"
       height="6"
       x="0"
       y="0" />
    <pattern
       id="EMFhbasepattern-2"
       patternUnits="userSpaceOnUse"
       width="6"
       height="6"
       x="0"
       y="0" />
    <pattern
       id="EMFhbasepattern-98"
       patternUnits="userSpaceOnUse"
       width="6"
       height="6"
       x="0"
       y="0" />
    <pattern
       id="EMFhbasepattern-6"
       patternUnits="userSpaceOnUse"
       width="6"
       height="6"
       x="0"
       y="0" />
    <pattern
       id="EMFhbasepattern-01"
       patternUnits="userSpaceOnUse"
       width="6"
       height="6"
       x="0"
       y="0" />
    <pattern
       id="EMFhbasepattern-07"
       patternUnits="userSpaceOnUse"
       width="6"
       height="6"
       x="0"
       y="0" />
    <pattern
       id="EMFhbasepattern-8"
       patternUnits="userSpaceOnUse"
       width="6"
       height="6"
       x="0"
       y="0" />
    <pattern
       id="EMFhbasepattern-4"
       patternUnits="userSpaceOnUse"
       width="6"
       height="6"
       x="0"
       y="0" />
    <pattern
       id="EMFhbasepattern-40"
       patternUnits="userSpaceOnUse"
       width="6"
       height="6"
       x="0"
       y="0" />
    <pattern
       id="EMFhbasepattern-08"
       patternUnits="userSpaceOnUse"
       width="6"
       height="6"
       x="0"
       y="0" />
    <pattern
       id="EMFhbasepattern-04"
       patternUnits="userSpaceOnUse"
       width="6"
       height="6"
       x="0"
       y="0" />
    <pattern
       id="EMFhbasepattern-014"
       patternUnits="userSpaceOnUse"
       width="6"
       height="6"
       x="0"
       y="0" />
    <pattern
       id="EMFhbasepattern-27"
       patternUnits="userSpaceOnUse"
       width="6"
       height="6"
       x="0"
       y="0" />
    <pattern
       id="EMFhbasepattern-09"
       patternUnits="userSpaceOnUse"
       width="6"
       height="6"
       x="0"
       y="0" />
    <pattern
       id="EMFhbasepattern-5"
       patternUnits="userSpaceOnUse"
       width="6"
       height="6"
       x="0"
       y="0" />
    <pattern
       id="EMFhbasepattern-018"
       patternUnits="userSpaceOnUse"
       width="6"
       height="6"
       x="0"
       y="0" />
  </defs>
  <sodipodi:namedview
     id="base"
     pagecolor="#ffffff"
     bordercolor="#666666"
     borderopacity="1.0"
     inkscape:pageopacity="0.0"
     inkscape:pageshadow="2"
     inkscape:zoom="6.2578125"
     inkscape:cx="42.666667"
     inkscape:cy="42.666667"
     inkscape:document-units="pt"
     inkscape:current-layer="layer1"
     showgrid="false"
     units="pt"
     inkscape:window-width="1366"
     inkscape:window-height="705"
     inkscape:window-x="-8"
     inkscape:window-y="-8"
     inkscape:window-maximized="1"
     inkscape:pagecheckerboard="true"
     inkscape:showpageshadow="false"
     inkscape:object-paths="true"
     inkscape:snap-intersection-paths="true"
     inkscape:snap-smooth-nodes="true"
     inkscape:snap-midpoints="true"
     showguides="true"
     inkscape:snap-bbox="true"
     inkscape:bbox-nodes="true"
     inkscape:snap-nodes="false"
     inkscape:snap-global="true"
     inkscape:document-rotation="0">
    <inkscape:grid
       type="xygrid"
       id="grid1378" />
    <sodipodi:guide
       position="0.97013831,21.607643"
       orientation="78.000048,0"
       id="guide1380"
       inkscape:locked="false" />
    <sodipodi:guide
       position="0.97013831,0.97013129"
       orientation="0,78.000005"
       id="guide1382"
       inkscape:locked="false" />
    <sodipodi:guide
       position="21.607639,0.97013129"
       orientation="-78.000048,0"
       id="guide1384"
       inkscape:locked="false" />
    <sodipodi:guide
       position="21.607639,21.607643"
       orientation="0,-78.000005"
       id="guide1386"
       inkscape:locked="false" />
  </sodipodi:namedview>
  <metadata
     id="metadata828">
    <rdf:RDF>
      <cc:Work
         rdf:about="">
        <dc:format>image/svg+xml</dc:format>
        <dc:type
           rdf:resource="http://purl.org/dc/dcmitype/StillImage" />
        <dc:title></dc:title>
      </cc:Work>
    </rdf:RDF>
  </metadata>
  <g
     inkscape:label="Icon"
     inkscape:groupmode="layer"
     id="layer1"
     transform="translate(0,-274.42223)">
    <g
       transform="matrix(1.2581832,0,0,1.2581832,77.39279,-38.937794)"
       style="display:inline;stroke-width:0.794797"
       id="g1114">
      <path
         style="color:#000000;font-style:normal;font-variant:normal;font-weight:normal;font-stretch:normal;font-size:medium;line-height:normal;font-family:sans-serif;font-variant-ligatures:normal;font-variant-position:normal;font-variant-caps:normal;font-variant-numeric:normal;font-variant-alternates:normal;font-variant-east-asian:normal;font-feature-settings:normal;font-variation-settings:normal;text-indent:0;text-align:start;text-decoration:none;text-decoration-line:none;text-decoration-style:solid;text-decoration-color:#000000;letter-spacing:normal;word-spacing:normal;text-transform:none;writing-mode:lr-tb;direction:ltr;text-orientation:mixed;dominant-baseline:auto;baseline-shift:baseline;text-anchor:start;white-space:normal;shape-padding:0;shape-margin:0;inline-size:0;clip-rule:nonzero;display:inline;overflow:visible;visibility:visible;isolation:auto;mix-blend-mode:normal;color-interpolation:sRGB;color-interpolation-filters:linearRGB;solid-color:#000000;solid-opacity:1;vector-effect:none;fill:#7d8e9e;fill-opacity:1;fill-rule:nonzero;stroke:none;stroke-width:0.42058;stroke-linecap:round;stroke-linejoin:round;stroke-miterlimit:4;stroke-dasharray:none;stroke-dashoffset:0;stroke-opacity:1;color-rendering:auto;image-rendering:auto;shape-rendering:auto;text-rendering:auto;enable-background:accumulate;stop-color:#000000"
         d="m -54.761719,250.74609 a 0.26460996,0.26460996 0 0 0 -0.279297,0.3125 l 0.148438,0.8125 c -0.216799,0.023 -0.43148,0.0528 -0.640625,0.10352 l -0.548828,-0.75586 a 0.26460996,0.26460996 0 0 0 -0.3125,-0.0918 l -0.982422,0.39063 a 0.26460996,0.26460996 0 0 0 -0.117188,0.40234 l 0.503907,0.6875 c -0.173384,0.11991 -0.344844,0.24595 -0.509766,0.39063 l -0.820312,-0.42383 a 0.26460996,0.26460996 0 0 0 -0.31836,0.0586 l -0.705078,0.79102 a 0.26460996,0.26460996 0 0 0 0.07617,0.41015 l 0.761719,0.39258 c -0.130534,0.2345 -0.2463,0.47868 -0.333985,0.74024 l -0.921875,0.0469 a 0.26460996,0.26460996 0 0 0 -0.24414,0.21289 l -0.210938,1.03711 a 0.26460996,0.26460996 0 0 0 0.275391,0.31641 l 0.789062,-0.0449 c -1.68e-4,0.0164 -0.002,0.0325 -0.002,0.0488 0,0.13173 0.0019,0.25333 0.002,0.37696 l -0.853515,0.45117 a 0.26460996,0.26460996 0 0 0 -0.132813,0.29687 l 0.246094,1.0293 a 0.26460996,0.26460996 0 0 0 0.380859,0.17188 l 0.769531,-0.4043 c 0.150761,0.30479 0.303105,0.61127 0.507813,0.89062 a 0.26460996,0.26460996 0 0 0 0.212891,0.10743 l 7.255859,0.006 a 0.26460996,0.26460996 0 0 0 0.214844,-0.10743 c 0.157792,-0.21466 0.283108,-0.45158 0.404297,-0.68945 l 0.925781,0.0762 a 0.26460996,0.26460996 0 0 0 0.271484,-0.17773 l 0.339844,-1.00391 a 0.26460996,0.26460996 0 0 0 -0.228516,-0.34765 l -0.839843,-0.0742 c 0.0149,-0.14117 0.02554,-0.28546 0.0293,-0.43555 l 0.867188,-0.32617 a 0.26460996,0.26460996 0 0 0 0.169922,-0.27149 l -0.09961,-1.05468 a 0.26460996,0.26460996 0 0 0 -0.353515,-0.22266 l -0.792969,0.28711 c -0.05532,-0.17414 -0.115502,-0.34713 -0.191406,-0.51563 l 0.662109,-0.64453 a 0.26460996,0.26460996 0 0 0 0.04492,-0.32031 L -49.863281,252.76 a 0.26460996,0.26460996 0 0 0 -0.410157,-0.0625 c -0.234366,0.21715 -0.451706,0.42772 -0.673828,0.62695 -0.126347,-0.13222 -0.258672,-0.25902 -0.402343,-0.375 l 0.320312,-0.84961 a 0.26460996,0.26460996 0 0 0 -0.09766,-0.31055 l -0.869141,-0.60351 a 0.26460996,0.26460996 0 0 0 -0.398437,0.125 c -0.105478,0.28249 -0.213259,0.5602 -0.324219,0.83593 -0.187516,-0.0709 -0.377622,-0.13639 -0.576172,-0.18554 l -0.169922,-0.92578 a 0.26460996,0.26460996 0 0 0 -0.242187,-0.2168 z"
         id="path1323" />
      <path
         id="path2858"
         style="fill:#5b6571;fill-opacity:1;stroke:none;stroke-width:0.42058;stroke-linecap:round;stroke-linejoin:round;stroke-opacity:1"
         d="m -54.783737,250.74545 c -0.164465,0.002 -0.287536,0.15148 -0.25735,0.31316 l 0.148312,0.81235 c -0.06209,0.007 -0.123335,0.0157 -0.185002,0.0238 2.137725,1.49277 2.661381,2.16129 3.194826,3.70134 0.427312,1.23364 0.158022,2.72522 -0.176922,3.91267 l 1.294495,10e-4 c 0.08455,5e-4 0.164251,-0.0395 0.214458,-0.10749 0.157792,-0.21466 0.283438,-0.45149 0.404625,-0.68936 l 0.925526,0.0765 c 0.120406,0.01 0.232042,-0.0635 0.271301,-0.17777 l 0.340032,-1.00407 c 0.05451,-0.16255 -0.05759,-0.33322 -0.22841,-0.34778 l -0.839742,-0.0739 c 0.0149,-0.14117 0.02519,-0.28554 0.02894,-0.43563 l 0.867648,-0.32608 c 0.111154,-0.0422 0.180488,-0.15342 0.169498,-0.27182 l -0.09922,-1.05471 c -0.01723,-0.17184 -0.191749,-0.2814 -0.353984,-0.22221 l -0.792715,0.2868 c -0.05532,-0.17414 -0.115298,-0.34723 -0.191204,-0.51573 l 0.661977,-0.6444 c 0.08614,-0.0841 0.104611,-0.21581 0.04496,-0.3204 l -0.521414,-0.92191 c -0.08456,-0.14835 -0.285404,-0.17896 -0.410314,-0.0625 -0.234365,0.21716 -0.451736,0.42813 -0.673859,0.62736 -0.126346,-0.13222 -0.258889,-0.25919 -0.402558,-0.37517 l 0.320392,-0.84956 c 0.04252,-0.11368 0.0024,-0.2417 -0.09767,-0.31058 l -0.869196,-0.60358 c -0.141829,-0.0981 -0.3381,-0.0365 -0.398425,0.12506 -0.105479,0.28248 -0.213053,0.56039 -0.324011,0.83612 -0.187519,-0.0709 -0.377643,-0.13637 -0.576194,-0.18552 l -0.170016,-0.92604 c -0.02167,-0.11895 -0.12123,-0.20808 -0.241845,-0.21652 l -1.054717,-0.0729 c -0.0074,-5.3e-4 -0.01482,-5.3e-4 -0.02222,-5.3e-4 z"
         sodipodi:nodetypes="ccccacccccccccccccccccccccccccsccccccc" />
      <path
         style="color:#000000;font-style:normal;font-variant:normal;font-weight:normal;font-stretch:normal;font-size:medium;line-height:normal;font-family:sans-serif;font-variant-ligatures:normal;font-variant-position:normal;font-variant-caps:normal;font-variant-numeric:normal;font-variant-alternates:normal;font-variant-east-asian:normal;font-feature-settings:normal;font-variation-settings:normal;text-indent:0;text-align:start;text-decoration:none;text-decoration-line:none;text-decoration-style:solid;text-decoration-color:#000000;letter-spacing:normal;word-spacing:normal;text-transform:none;writing-mode:lr-tb;direction:ltr;text-orientation:mixed;dominant-baseline:auto;baseline-shift:baseline;text-anchor:start;white-space:normal;shape-padding:0;shape-margin:0;inline-size:0;clip-rule:nonzero;display:inline;overflow:visible;visibility:visible;isolation:auto;mix-blend-mode:normal;color-interpolation:sRGB;color-interpolation-filters:linearRGB;solid-color:#000000;solid-opacity:1;vector-effect:none;fill:#9a605a;fill-opacity:1;fill-rule:nonzero;stroke:none;stroke-width:0.42058;stroke-linecap:round;stroke-linejoin:round;stroke-miterlimit:4;stroke-dasharray:none;stroke-dashoffset:0;stroke-opacity:1;color-rendering:auto;image-rendering:auto;shape-rendering:auto;text-rendering:auto;enable-background:accumulate;stop-color:#000000"
         d="m -48.306641,256.84766 a 0.26460996,0.26460996 0 0 0 -0.0625,0.52148 c 0.409041,0.10263 0.591326,0.43498 0.591797,0.79297 4.66e-4,0.35355 -0.188542,0.68455 -0.591797,0.80273 h -11.314453 c -0.581367,0 -1.056638,0.47723 -1.05664,1.0586 v 3.43945 a 0.26460996,0.26460996 0 0 0 0.263672,0.26367 h 15.875 a 0.26460996,0.26460996 0 0 0 0.263671,-0.26367 v -4.24609 c 6e-6,-1.30519 -1.062002,-2.36914 -2.367187,-2.36914 z"
         id="path1358" />
      <path
         style="color:#000000;font-style:normal;font-variant:normal;font-weight:normal;font-stretch:normal;font-size:medium;line-height:normal;font-family:sans-serif;font-variant-ligatures:normal;font-variant-position:normal;font-variant-caps:normal;font-variant-numeric:normal;font-variant-alternates:normal;font-variant-east-asian:normal;font-feature-settings:normal;font-variation-settings:normal;text-indent:0;text-align:start;text-decoration:none;text-decoration-line:none;text-decoration-style:solid;text-decoration-color:#000000;letter-spacing:normal;word-spacing:normal;text-transform:none;writing-mode:lr-tb;direction:ltr;text-orientation:mixed;dominant-baseline:auto;baseline-shift:baseline;text-anchor:start;white-space:normal;shape-padding:0;shape-margin:0;inline-size:0;clip-rule:nonzero;display:inline;overflow:visible;visibility:visible;isolation:auto;mix-blend-mode:normal;color-interpolation:sRGB;color-interpolation-filters:linearRGB;solid-color:#000000;solid-opacity:1;vector-effect:none;fill:#9a605a;fill-opacity:1;fill-rule:nonzero;stroke:none;stroke-width:0.42058;stroke-linecap:round;stroke-linejoin:round;stroke-miterlimit:4;stroke-dasharray:none;stroke-dashoffset:0;stroke-opacity:1;color-rendering:auto;image-rendering:auto;shape-rendering:auto;text-rendering:auto;enable-background:accumulate;stop-color:#000000"
         d="m -60.476562,263.19727 a 0.26460996,0.26460996 0 0 0 -0.263672,0.26562 v 0.79297 c -10e-6,0.58135 0.47529,1.05859 1.05664,1.05859 h 14.289063 c 0.58135,0 1.05665,-0.47724 1.05664,-1.05859 v -0.79297 a 0.26460996,0.26460996 0 0 0 -0.263671,-0.26562 z"
         id="path1372" />
      <path
         style="color:#000000;font-style:normal;font-variant:normal;font-weight:normal;font-stretch:normal;font-size:medium;line-height:normal;font-family:sans-serif;font-variant-ligatures:normal;font-variant-position:normal;font-variant-caps:normal;font-variant-numeric:normal;font-variant-alternates:normal;font-variant-east-asian:normal;font-feature-settings:normal;font-variation-settings:normal;text-indent:0;text-align:start;text-decoration:none;text-decoration-line:none;text-decoration-style:solid;text-decoration-color:#000000;letter-spacing:normal;word-spacing:normal;text-transform:none;writing-mode:lr-tb;direction:ltr;text-orientation:mixed;dominant-baseline:auto;baseline-shift:baseline;text-anchor:start;white-space:normal;shape-padding:0;shape-margin:0;inline-size:0;clip-rule:nonzero;display:inline;overflow:visible;visibility:visible;isolation:auto;mix-blend-mode:normal;color-interpolation:sRGB;color-interpolation-filters:linearRGB;solid-color:#000000;solid-opacity:1;vector-effect:none;fill:#aabfd0;fill-opacity:1;fill-rule:nonzero;stroke:none;stroke-width:0.42058;stroke-linecap:round;stroke-linejoin:round;stroke-miterlimit:4;stroke-dasharray:none;stroke-dashoffset:0;stroke-opacity:1;color-rendering:auto;image-rendering:auto;shape-rendering:auto;text-rendering:auto;enable-background:accumulate;stop-color:#000000"
         d="m -54.390625,254.73242 c -1.019744,0 -1.853516,0.83182 -1.853516,1.85156 0,1.01975 0.833772,1.85157 1.853516,1.85157 1.019744,0 1.851562,-0.83182 1.851563,-1.85157 -10e-7,-1.01974 -0.831819,-1.85156 -1.851563,-1.85156 z"
         id="path1309" />
      <path
         style="color:#000000;font-style:normal;font-variant:normal;font-weight:normal;font-stretch:normal;font-size:medium;line-height:normal;font-family:sans-serif;font-variant-ligatures:normal;font-variant-position:normal;font-variant-caps:normal;font-variant-numeric:normal;font-variant-alternates:normal;font-variant-east-asian:normal;font-feature-settings:normal;font-variation-settings:normal;text-indent:0;text-align:start;text-decoration:none;text-decoration-line:none;text-decoration-style:solid;text-decoration-color:#000000;letter-spacing:normal;word-spacing:normal;text-transform:none;writing-mode:lr-tb;direction:ltr;text-orientation:mixed;dominant-baseline:auto;baseline-shift:baseline;text-anchor:start;white-space:normal;shape-padding:0;shape-margin:0;inline-size:0;clip-rule:nonzero;display:inline;overflow:visible;visibility:visible;isolation:auto;mix-blend-mode:normal;color-interpolation:sRGB;color-interpolation-filters:linearRGB;solid-color:#000000;solid-opacity:1;vector-effect:none;fill:#7d8e9e;fill-opacity:1;fill-rule:nonzero;stroke:none;stroke-width:0.42058;stroke-linecap:round;stroke-linejoin:round;stroke-miterlimit:4;stroke-dasharray:none;stroke-dashoffset:0;stroke-opacity:1;color-rendering:auto;image-rendering:auto;shape-rendering:auto;text-rendering:auto;enable-background:accumulate;stop-color:#000000"
         d="m -54.765625,255.67188 a 0.26460996,0.26460996 0 0 0 -0.228516,0.13085 l -0.375,0.64844 a 0.26460996,0.26460996 0 0 0 0,0.26563 l 0.375,0.64648 a 0.26460996,0.26460996 0 0 0 0.228516,0.13281 h 0.748047 a 0.26460996,0.26460996 0 0 0 0.230469,-0.13281 l 0.373047,-0.64648 a 0.26460996,0.26460996 0 0 0 0,-0.26563 l -0.373047,-0.64844 a 0.26460996,0.26460996 0 0 0 -0.230469,-0.13085 z"
         id="path1295" />
      <path
         style="color:#000000;font-style:normal;font-variant:normal;font-weight:normal;font-stretch:normal;font-size:medium;line-height:normal;font-family:sans-serif;font-variant-ligatures:normal;font-variant-position:normal;font-variant-caps:normal;font-variant-numeric:normal;font-variant-alternates:normal;font-variant-east-asian:normal;font-feature-settings:normal;font-variation-settings:normal;text-indent:0;text-align:start;text-decoration:none;text-decoration-line:none;text-decoration-style:solid;text-decoration-color:#000000;letter-spacing:normal;word-spacing:normal;text-transform:none;writing-mode:lr-tb;direction:ltr;text-orientation:mixed;dominant-baseline:auto;baseline-shift:baseline;text-anchor:start;white-space:normal;shape-padding:0;shape-margin:0;inline-size:0;clip-rule:nonzero;display:inline;overflow:visible;visibility:visible;isolation:auto;mix-blend-mode:normal;color-interpolation:sRGB;color-interpolation-filters:linearRGB;solid-color:#000000;solid-opacity:1;vector-effect:none;fill:#f9f9f9;fill-opacity:1;fill-rule:nonzero;stroke:none;stroke-width:0.42058;stroke-linecap:round;stroke-linejoin:round;stroke-miterlimit:4;stroke-dasharray:none;stroke-dashoffset:0;stroke-opacity:1;color-rendering:auto;image-rendering:auto;shape-rendering:auto;text-rendering:auto;enable-background:accumulate;stop-color:#000000"
         d="m -57.140625,254.07617 a 0.2645835,0.2645835 0 0 0 -0.173828,0.0918 c -0.40398,0.46893 -0.668576,1.02677 -0.775391,1.66211 a 0.2645835,0.2645835 0 0 0 0.216797,0.30469 0.2645835,0.2645835 0 0 0 0.304688,-0.2168 c 0.09175,-0.5457 0.312136,-1.00485 0.65625,-1.4043 a 0.2645835,0.2645835 0 0 0 -0.0293,-0.375 0.2645835,0.2645835 0 0 0 -0.199219,-0.0625 z"
         id="path1289" />
      <path
         style="color:#000000;font-style:normal;font-variant:normal;font-weight:normal;font-stretch:normal;font-size:medium;line-height:normal;font-family:sans-serif;font-variant-ligatures:normal;font-variant-position:normal;font-variant-caps:normal;font-variant-numeric:normal;font-variant-alternates:normal;font-variant-east-asian:normal;font-feature-settings:normal;font-variation-settings:normal;text-indent:0;text-align:start;text-decoration:none;text-decoration-line:none;text-decoration-style:solid;text-decoration-color:#000000;letter-spacing:normal;word-spacing:normal;text-transform:none;writing-mode:lr-tb;direction:ltr;text-orientation:mixed;dominant-baseline:auto;baseline-shift:baseline;text-anchor:start;white-space:normal;shape-padding:0;shape-margin:0;inline-size:0;clip-rule:nonzero;display:inline;overflow:visible;visibility:visible;isolation:auto;mix-blend-mode:normal;color-interpolation:sRGB;color-interpolation-filters:linearRGB;solid-color:#000000;solid-opacity:1;vector-effect:none;fill:#f9f9f9;fill-opacity:1;fill-rule:nonzero;stroke:none;stroke-width:0.42058;stroke-linecap:round;stroke-linejoin:round;stroke-miterlimit:4;stroke-dasharray:none;stroke-dashoffset:0;stroke-opacity:1;color-rendering:auto;image-rendering:auto;shape-rendering:auto;text-rendering:auto;enable-background:accumulate;stop-color:#000000"
         d="m -56.214844,253.24805 a 0.2645835,0.2645835 0 0 0 -0.146484,0.0508 l -0.361328,0.26172 a 0.2645835,0.2645835 0 0 0 -0.05859,0.37109 0.2645835,0.2645835 0 0 0 0.369141,0.0586 l 0.363281,-0.26367 a 0.2645835,0.2645835 0 0 0 0.05859,-0.36914 0.2645835,0.2645835 0 0 0 -0.22461,-0.10937 z"
         id="path1285" />
      <path
         style="color:#000000;font-style:normal;font-variant:normal;font-weight:normal;font-stretch:normal;font-size:medium;line-height:normal;font-family:sans-serif;font-variant-ligatures:normal;font-variant-position:normal;font-variant-caps:normal;font-variant-numeric:normal;font-variant-alternates:normal;font-variant-east-asian:normal;font-feature-settings:normal;font-variation-settings:normal;text-indent:0;text-align:start;text-decoration:none;text-decoration-line:none;text-decoration-style:solid;text-decoration-color:#000000;letter-spacing:normal;word-spacing:normal;text-transform:none;writing-mode:lr-tb;direction:ltr;text-orientation:mixed;dominant-baseline:auto;baseline-shift:baseline;text-anchor:start;white-space:normal;shape-padding:0;shape-margin:0;inline-size:0;clip-rule:nonzero;display:inline;overflow:visible;visibility:visible;isolation:auto;mix-blend-mode:normal;color-interpolation:sRGB;color-interpolation-filters:linearRGB;solid-color:#000000;solid-opacity:1;vector-effect:none;fill:#66342d;fill-opacity:1;fill-rule:nonzero;stroke:none;stroke-width:0.42058;stroke-linecap:round;stroke-linejoin:round;stroke-miterlimit:4;stroke-dasharray:none;stroke-dashoffset:0;stroke-opacity:1;color-rendering:auto;image-rendering:auto;shape-rendering:auto;text-rendering:auto;enable-background:accumulate;stop-color:#000000"
         d="m -59.417969,260.02344 a 0.2645835,0.2645835 0 0 0 -0.265625,0.26367 0.2645835,0.2645835 0 0 0 0.265625,0.26562 h 3.703125 a 0.2645835,0.2645835 0 0 0 0.265625,-0.26562 0.2645835,0.2645835 0 0 0 -0.265625,-0.26367 z"
         id="path1335" />
      <path
         style="color:#000000;font-style:normal;font-variant:normal;font-weight:normal;font-stretch:normal;font-size:medium;line-height:normal;font-family:sans-serif;font-variant-ligatures:normal;font-variant-position:normal;font-variant-caps:normal;font-variant-numeric:normal;font-variant-alternates:normal;font-variant-east-asian:normal;font-feature-settings:normal;font-variation-settings:normal;text-indent:0;text-align:start;text-decoration:none;text-decoration-line:none;text-decoration-style:solid;text-decoration-color:#000000;letter-spacing:normal;word-spacing:normal;text-transform:none;writing-mode:lr-tb;direction:ltr;text-orientation:mixed;dominant-baseline:auto;baseline-shift:baseline;text-anchor:start;white-space:normal;shape-padding:0;shape-margin:0;inline-size:0;clip-rule:nonzero;display:inline;overflow:visible;visibility:visible;isolation:auto;mix-blend-mode:normal;color-interpolation:sRGB;color-interpolation-filters:linearRGB;solid-color:#000000;solid-opacity:1;vector-effect:none;fill:#66342d;fill-opacity:1;fill-rule:nonzero;stroke:none;stroke-width:0.42058;stroke-linecap:round;stroke-linejoin:round;stroke-miterlimit:4;stroke-dasharray:none;stroke-dashoffset:0;stroke-opacity:1;color-rendering:auto;image-rendering:auto;shape-rendering:auto;text-rendering:auto;enable-background:accumulate;stop-color:#000000"
         d="m -58.888672,261.61133 a 0.2645835,0.2645835 0 0 0 -0.265625,0.26367 0.2645835,0.2645835 0 0 0 0.265625,0.26562 h 3.703125 a 0.2645835,0.2645835 0 0 0 0.265625,-0.26562 0.2645835,0.2645835 0 0 0 -0.265625,-0.26367 z"
         id="path1339" />
      <path
         style="color:#000000;font-style:normal;font-variant:normal;font-weight:normal;font-stretch:normal;font-size:medium;line-height:normal;font-family:sans-serif;font-variant-ligatures:normal;font-variant-position:normal;font-variant-caps:normal;font-variant-numeric:normal;font-variant-alternates:normal;font-variant-east-asian:normal;font-feature-settings:normal;font-variation-settings:normal;text-indent:0;text-align:start;text-decoration:none;text-decoration-line:none;text-decoration-style:solid;text-decoration-color:#000000;letter-spacing:normal;word-spacing:normal;text-transform:none;writing-mode:lr-tb;direction:ltr;text-orientation:mixed;dominant-baseline:auto;baseline-shift:baseline;text-anchor:start;white-space:normal;shape-padding:0;shape-margin:0;inline-size:0;clip-rule:nonzero;display:inline;overflow:visible;visibility:visible;isolation:auto;mix-blend-mode:normal;color-interpolation:sRGB;color-interpolation-filters:linearRGB;solid-color:#000000;solid-opacity:1;vector-effect:none;fill:#66342d;fill-opacity:1;fill-rule:nonzero;stroke:none;stroke-width:0.42058;stroke-linecap:round;stroke-linejoin:round;stroke-miterlimit:4;stroke-dasharray:none;stroke-dashoffset:0;stroke-opacity:1;color-rendering:auto;image-rendering:auto;shape-rendering:auto;text-rendering:auto;enable-background:accumulate;stop-color:#000000"
         d="m -53.597656,261.08203 a 0.2645835,0.2645835 0 0 0 -0.263672,0.26367 0.2645835,0.2645835 0 0 0 0.263672,0.26563 h 3.705078 a 0.2645835,0.2645835 0 0 0 0.263672,-0.26563 0.2645835,0.2645835 0 0 0 -0.263672,-0.26367 z"
         id="path1343" />
      <path
         style="color:#000000;font-style:normal;font-variant:normal;font-weight:normal;font-stretch:normal;font-size:medium;line-height:normal;font-family:sans-serif;font-variant-ligatures:normal;font-variant-position:normal;font-variant-caps:normal;font-variant-numeric:normal;font-variant-alternates:normal;font-variant-east-asian:normal;font-feature-settings:normal;font-variation-settings:normal;text-indent:0;text-align:start;text-decoration:none;text-decoration-line:none;text-decoration-style:solid;text-decoration-color:#000000;letter-spacing:normal;word-spacing:normal;text-transform:none;writing-mode:lr-tb;direction:ltr;text-orientation:mixed;dominant-baseline:auto;baseline-shift:baseline;text-anchor:start;white-space:normal;shape-padding:0;shape-margin:0;inline-size:0;clip-rule:nonzero;display:inline;overflow:visible;visibility:visible;isolation:auto;mix-blend-mode:normal;color-interpolation:sRGB;color-interpolation-filters:linearRGB;solid-color:#000000;solid-opacity:1;vector-effect:none;fill:#66342d;fill-opacity:1;fill-rule:nonzero;stroke:none;stroke-width:0.42058;stroke-linecap:round;stroke-linejoin:round;stroke-miterlimit:4;stroke-dasharray:none;stroke-dashoffset:0;stroke-opacity:1;color-rendering:auto;image-rendering:auto;shape-rendering:auto;text-rendering:auto;enable-background:accumulate;stop-color:#000000"
         d="m -49.363281,260.02344 a 0.2645835,0.2645835 0 0 0 -0.265625,0.26367 0.2645835,0.2645835 0 0 0 0.265625,0.26562 h 3.703125 a 0.2645835,0.2645835 0 0 0 0.265625,-0.26562 0.2645835,0.2645835 0 0 0 -0.265625,-0.26367 z"
         id="path1347" />
      <path
         style="color:#000000;font-style:normal;font-variant:normal;font-weight:normal;font-stretch:normal;font-size:medium;line-height:normal;font-family:sans-serif;font-variant-ligatures:normal;font-variant-position:normal;font-variant-caps:normal;font-variant-numeric:normal;font-variant-alternates:normal;font-variant-east-asian:normal;font-feature-settings:normal;font-variation-settings:normal;text-indent:0;text-align:start;text-decoration:none;text-decoration-line:none;text-decoration-style:solid;text-decoration-color:#000000;letter-spacing:normal;word-spacing:normal;text-transform:none;writing-mode:lr-tb;direction:ltr;text-orientation:mixed;dominant-baseline:auto;baseline-shift:baseline;text-anchor:start;white-space:normal;shape-padding:0;shape-margin:0;inline-size:0;clip-rule:nonzero;display:inline;overflow:visible;visibility:visible;isolation:auto;mix-blend-mode:normal;color-interpolation:sRGB;color-interpolation-filters:linearRGB;solid-color:#000000;solid-opacity:1;vector-effect:none;fill:#66342d;fill-opacity:1;fill-rule:nonzero;stroke:none;stroke-width:0.42058;stroke-linecap:round;stroke-linejoin:round;stroke-miterlimit:4;stroke-dasharray:none;stroke-dashoffset:0;stroke-opacity:1;color-rendering:auto;image-rendering:auto;shape-rendering:auto;text-rendering:auto;enable-background:accumulate;stop-color:#000000"
         d="m -49.363281,262.14062 a 0.2645835,0.2645835 0 0 0 -0.265625,0.26368 0.2645835,0.2645835 0 0 0 0.265625,0.26562 h 3.703125 a 0.2645835,0.2645835 0 0 0 0.265625,-0.26562 0.2645835,0.2645835 0 0 0 -0.265625,-0.26368 z"
         id="path1351" />
      <path
         sodipodi:nodetypes="cccccccccccc"
         id="path2831"
         style="color:#000000;font-style:normal;font-variant:normal;font-weight:normal;font-stretch:normal;font-size:medium;line-height:normal;font-family:sans-serif;font-variant-ligatures:normal;font-variant-position:normal;font-variant-caps:normal;font-variant-numeric:normal;font-variant-alternates:normal;font-variant-east-asian:normal;font-feature-settings:normal;font-variation-settings:normal;text-indent:0;text-align:start;text-decoration:none;text-decoration-line:none;text-decoration-style:solid;text-decoration-color:#000000;letter-spacing:normal;word-spacing:normal;text-transform:none;writing-mode:lr-tb;direction:ltr;text-orientation:mixed;dominant-baseline:auto;baseline-shift:baseline;text-anchor:start;white-space:normal;shape-padding:0;shape-margin:0;inline-size:0;clip-rule:nonzero;display:inline;overflow:visible;visibility:visible;isolation:auto;mix-blend-mode:normal;color-interpolation:sRGB;color-interpolation-filters:linearRGB;solid-color:#000000;solid-opacity:1;vector-effect:none;fill:#66342d;fill-opacity:1;fill-rule:nonzero;stroke:none;stroke-width:0.42058;stroke-linecap:round;stroke-linejoin:round;stroke-miterlimit:4;stroke-dasharray:none;stroke-dashoffset:0;stroke-opacity:1;color-rendering:auto;image-rendering:auto;shape-rendering:auto;text-rendering:auto;enable-background:accumulate;stop-color:#000000"
         d="m -60.74048,263.46302 v 0.26355 h 15.609899 c 0.146121,5.8e-4 0.264109,0.1195 0.263551,0.26562 v 0.79272 c 3e-6,0.15479 -0.0357,0.3011 -0.09612,0.43408 0.0013,-5.7e-4 0.0034,-0.002 0.0046,-0.002 0.364596,-0.1676 0.620644,-0.53558 0.620636,-0.96118 v -0.79272 c 5.53e-4,-0.14612 -0.117434,-0.26503 -0.263552,-0.26561 l -16.138768,-7e-5 z" />
      <path
         id="path2844"
         style="color:#000000;font-style:normal;font-variant:normal;font-weight:normal;font-stretch:normal;font-size:medium;line-height:normal;font-family:sans-serif;font-variant-ligatures:normal;font-variant-position:normal;font-variant-caps:normal;font-variant-numeric:normal;font-variant-alternates:normal;font-variant-east-asian:normal;font-feature-settings:normal;font-variation-settings:normal;text-indent:0;text-align:start;text-decoration:none;text-decoration-line:none;text-decoration-style:solid;text-decoration-color:#000000;letter-spacing:normal;word-spacing:normal;text-transform:none;writing-mode:lr-tb;direction:ltr;text-orientation:mixed;dominant-baseline:auto;baseline-shift:baseline;text-anchor:start;white-space:normal;shape-padding:0;shape-margin:0;inline-size:0;clip-rule:nonzero;display:inline;overflow:visible;visibility:visible;isolation:auto;mix-blend-mode:normal;color-interpolation:sRGB;color-interpolation-filters:linearRGB;solid-color:#000000;solid-opacity:1;vector-effect:none;fill:#66342d;fill-opacity:1;fill-rule:nonzero;stroke:none;stroke-width:0.42058;stroke-linecap:round;stroke-linejoin:round;stroke-miterlimit:4;stroke-dasharray:none;stroke-dashoffset:0;stroke-opacity:1;color-rendering:auto;image-rendering:auto;shape-rendering:auto;text-rendering:auto;enable-background:accumulate;stop-color:#000000"
         d="m -48.306611,256.84741 c -0.314083,-0.001 -0.367963,0.44872 -0.06253,0.52193 0.0076,0.002 0.01375,0.005 0.02119,0.007 h 1.113626 c 1.305187,0 2.367304,1.06418 2.367298,2.36937 v 3.98064 h 0.265616 c 0.145314,-5.8e-4 0.26297,-0.11824 0.263551,-0.26355 v -4.24626 c 5e-6,-1.30519 -1.062111,-2.36936 -2.367298,-2.36936 z"
         sodipodi:nodetypes="cccsccccccc" />
      <path
         id="path2849"
         style="color:#000000;font-style:normal;font-variant:normal;font-weight:normal;font-stretch:normal;font-size:medium;line-height:normal;font-family:sans-serif;font-variant-ligatures:normal;font-variant-position:normal;font-variant-caps:normal;font-variant-numeric:normal;font-variant-alternates:normal;font-variant-east-asian:normal;font-feature-settings:normal;font-variation-settings:normal;text-indent:0;text-align:start;text-decoration:none;text-decoration-line:none;text-decoration-style:solid;text-decoration-color:#000000;letter-spacing:normal;word-spacing:normal;text-transform:none;writing-mode:lr-tb;direction:ltr;text-orientation:mixed;dominant-baseline:auto;baseline-shift:baseline;text-anchor:start;white-space:normal;shape-padding:0;shape-margin:0;inline-size:0;clip-rule:nonzero;display:inline;overflow:visible;visibility:visible;isolation:auto;mix-blend-mode:normal;color-interpolation:sRGB;color-interpolation-filters:linearRGB;solid-color:#000000;solid-opacity:1;vector-effect:none;fill:#5b6571;fill-opacity:1;fill-rule:nonzero;stroke:none;stroke-width:0.42058;stroke-linecap:round;stroke-linejoin:round;stroke-miterlimit:4;stroke-dasharray:none;stroke-dashoffset:0;stroke-opacity:1;color-rendering:auto;image-rendering:auto;shape-rendering:auto;text-rendering:auto;enable-background:accumulate;stop-color:#000000"
         d="m -54.536212,255.67177 a 0.26460996,0.26460996 0 0 1 0.220141,0.13074 l 0.372586,0.64854 a 0.26460996,0.26460996 0 0 1 0,0.26561 l -0.372586,0.64648 a 0.26460996,0.26460996 0 0 1 -0.230478,0.1328 h 0.529166 a 0.26460996,0.26460996 0 0 0 0.230479,-0.1328 l 0.372586,-0.64648 a 0.26460996,0.26460996 0 0 0 0,-0.26561 l -0.372586,-0.64854 a 0.26460996,0.26460996 0 0 0 -0.230479,-0.13074 z" />
      <path
         sodipodi:nodetypes="sccscs"
         d="m -59.683696,258.96459 c -0.407864,0 -0.759392,0.23732 -0.935345,0.57826 h 10.986675 c 0.360163,0 0.712055,-0.10797 1.010251,-0.30995 l 0.396118,-0.26831 z"
         style="fill:#66342d;fill-opacity:1;stroke-width:0.42058;stroke-linecap:round;stroke-linejoin:round"
         id="path1054" />
    </g>
  </g>
</svg>
